# File created by Blade
# Date/Time:  Wed Jan 21 18:34:41 2015
# Frame Rate: 120.000 fps
#------------------------------------------------------
:FULLY-SPECIFIED
:DEGREES
1965
root 2.417445 32.733365 -5.902502 45.548665 5.077540 1.651487
RightUpLeg -37.885184 -18.596311 9.751340
RightLeg -3.477735 -0.000000 0.000000
RightFoot -9.594327 -1.219443 23.074371
RightToeBase 21.117516 -0.000000 -0.000000
LeftUpLeg -39.863149 10.216495 -2.933632
LeftLeg 0.136093 -0.000000 -0.000000
LeftFoot -3.207663 -8.571296 -15.811521
LeftToeBase 3.263522 -0.000000 -0.000000
Spine -46.067381 1.791642 -3.374601
RightShoulder -33.350535 -5.675181 -46.873441
RightArm -25.057857 -3.704480 58.477601
RightForeArm 5.156772 0.000000 -8.206294
RightHand 11.071375 -0.000000 -3.114981
RightHandThumb1 -24.326973 -0.000000 -32.862282
LeftShoulder -23.151114 16.418555 38.276164
LeftArm -3.095768 -19.481810 -65.754296
LeftForeArm 23.950857 0.000000 -1.390529
LeftHand -30.614684 0.000000 5.864597
LeftHandThumb1 -26.253704 0.000000 33.147579
Head 1.142592 -4.729723 8.396363
1966
root 2.415649 32.732967 -5.913354 45.578899 5.088612 1.638052
RightUpLeg -37.949269 -18.604220 9.804695
RightLeg -3.465388 -0.000000 0.000000
RightFoot -9.601743 -1.165327 23.038996
RightToeBase 21.159202 -0.000000 -0.000000
LeftUpLeg -39.915980 10.209057 -2.916735
LeftLeg 0.141854 -0.000000 -0.000000
LeftFoot -3.221468 -8.567362 -15.810093
LeftToeBase 3.298741 -0.000000 -0.000000
Spine -46.067103 1.790487 -3.341847
RightShoulder -33.381590 -5.670450 -46.846971
RightArm -25.125686 -3.737902 58.661463
RightForeArm 5.530288 -0.000000 -8.257160
RightHand 10.976096 0.000000 -2.902281
RightHandThumb1 -24.326973 -0.000000 -32.862282
LeftShoulder -23.140851 16.411929 38.246829
LeftArm -3.144473 -19.473897 -65.759633
LeftForeArm 23.834747 -0.000000 -1.397053
LeftHand -30.650181 0.000000 5.755898
LeftHandThumb1 -26.253704 0.000000 33.147579
Head 1.128677 -4.738496 8.403455
1967
root 2.414786 32.733206 -5.922145 45.590861 5.082003 1.629972
RightUpLeg -37.981900 -18.593178 9.817775
RightLeg -3.458632 -0.000000 0.000000
RightFoot -9.605798 -1.159203 23.027096
RightToeBase 21.224016 -0.000000 -0.000000
LeftUpLeg -39.937693 10.210944 -2.914765
LeftLeg 0.132031 -0.000000 -0.000000
LeftFoot -3.212061 -8.562015 -15.793626
LeftToeBase 3.281840 -0.000000 -0.000000
Spine -46.053704 1.788183 -3.315314
RightShoulder -33.397460 -5.655941 -46.808961
RightArm -25.156781 -3.556956 58.681744
RightForeArm 5.667550 -0.000000 -8.355582
RightHand 10.670022 -0.000000 -2.455283
RightHandThumb1 -24.326973 -0.000000 -32.862282
LeftShoulder -23.146953 16.453065 38.234575
LeftArm -3.135729 -19.711001 -65.776153
LeftForeArm 23.825557 -0.000000 -1.444867
LeftHand -30.611303 0.000000 5.479653
LeftHandThumb1 -26.253704 0.000000 33.147579
Head 1.125506 -4.752606 8.415234
1968
root 2.414611 32.732641 -5.930826 45.602311 5.072727 1.619205
RightUpLeg -38.005985 -18.586467 9.831060
RightLeg -3.464785 -0.000000 0.000000
RightFoot -9.587324 -1.181443 22.983897
RightToeBase 21.203863 -0.000000 -0.000000
LeftUpLeg -39.946659 10.197426 -2.889734
LeftLeg 0.103998 -0.000000 -0.000000
LeftFoot -3.210915 -8.547455 -15.840577
LeftToeBase 3.318789 -0.000000 -0.000000
Spine -46.037248 1.799052 -3.296216
RightShoulder -33.406894 -5.660895 -46.754296
RightArm -25.158488 -3.344753 58.662829
RightForeArm 5.726038 -0.000000 -8.519000
RightHand 10.457593 -0.000000 -2.021225
RightHandThumb1 -24.326973 -0.000000 -32.862282
LeftShoulder -23.147324 16.481065 38.225808
LeftArm -3.135195 -19.671535 -65.797634
LeftForeArm 23.472218 -0.000000 -1.476236
LeftHand -30.538681 -0.000000 5.111100
LeftHandThumb1 -26.253704 0.000000 33.147579
Head 1.114009 -4.812545 8.417408
1969
root 2.414396 32.732584 -5.938240 45.612770 5.046946 1.611822
RightUpLeg -38.024460 -18.562999 9.827383
RightLeg -3.479723 -0.000000 0.000000
RightFoot -9.535404 -1.105606 23.101055
RightToeBase 21.122575 -0.000000 -0.000000
LeftUpLeg -39.955054 10.197356 -2.883888
LeftLeg 0.085252 -0.000000 -0.000000
LeftFoot -3.207150 -8.529856 -15.844646
LeftToeBase 3.312396 -0.000000 -0.000000
Spine -46.023641 1.809804 -3.280825
RightShoulder -33.388353 -5.652728 -46.699622
RightArm -25.181122 -3.286275 58.710272
RightForeArm 5.775244 -0.000000 -8.647944
RightHand 10.141616 -0.000000 -1.616791
RightHandThumb1 -24.326973 -0.000000 -32.862282
LeftShoulder -23.159348 16.501571 38.192862
LeftArm -3.128054 -19.723662 -65.783243
LeftForeArm 23.304357 -0.000000 -1.518634
LeftHand -30.534650 -0.000000 4.812809
LeftHandThumb1 -26.253704 0.000000 33.147579
Head 1.111267 -4.849624 8.411224
1970
root 2.413672 32.733172 -5.946069 45.633255 5.014984 1.607656
RightUpLeg -38.052730 -18.525807 9.813217
RightLeg -3.489127 -0.000000 0.000000
RightFoot -9.547119 -1.141499 23.043412
RightToeBase 21.185927 -0.000000 -0.000000
LeftUpLeg -39.965396 10.183892 -2.872931
LeftLeg 0.054336 -0.000000 -0.000000
LeftFoot -3.188596 -8.490652 -15.873137
LeftToeBase 3.274994 -0.000000 -0.000000
Spine -46.019266 1.835069 -3.292091
RightShoulder -33.384847 -5.684066 -46.599375
RightArm -25.150007 -3.283792 58.765987
RightForeArm 5.720376 0.000000 -8.817147
RightHand 9.970017 0.000000 -1.341006
RightHandThumb1 -24.326973 -0.000000 -32.862282
LeftShoulder -23.149676 16.538586 38.166392
LeftArm -3.081804 -19.685749 -65.801020
LeftForeArm 23.141433 -0.000000 -1.573781
LeftHand -30.487376 0.000000 4.580099
LeftHandThumb1 -26.253704 0.000000 33.147579
Head 1.097075 -4.910194 8.410962
1971
root 2.413415 32.733340 -5.953860 45.654122 4.991065 1.612341
RightUpLeg -38.082545 -18.525350 9.816217
RightLeg -3.511064 -0.000000 0.000000
RightFoot -9.509680 -1.090558 23.109030
RightToeBase 21.156170 -0.000000 -0.000000
LeftUpLeg -39.990644 10.173093 -2.877794
LeftLeg 0.046349 -0.000000 -0.000000
LeftFoot -3.190221 -8.470641 -15.876471
LeftToeBase 3.284299 -0.000000 -0.000000
Spine -46.011077 1.840591 -3.290483
RightShoulder -33.386397 -5.813491 -46.427647
RightArm -25.022901 -3.460758 58.930770
RightForeArm 5.871438 -0.000000 -8.924030
RightHand 9.962680 -0.000000 -1.176644
RightHandThumb1 -24.326973 -0.000000 -32.862282
LeftShoulder -23.155022 16.555667 38.146151
LeftArm -3.040312 -19.588008 -65.826910
LeftForeArm 23.139602 0.000000 -1.650312
LeftHand -30.433390 -0.000000 4.482906
LeftHandThumb1 -26.253704 0.000000 33.147579
Head 1.083904 -4.968013 8.400751
1972
root 2.411980 32.733843 -5.961183 45.681452 4.960728 1.609843
RightUpLeg -38.120237 -18.505230 9.818259
RightLeg -3.521883 -0.000000 0.000000
RightFoot -9.504333 -1.103442 23.020800
RightToeBase 21.193149 -0.000000 -0.000000
LeftUpLeg -40.027372 10.185052 -2.891922
LeftLeg 0.046308 -0.000000 -0.000000
LeftFoot -3.179737 -8.476361 -15.906390
LeftToeBase 3.304995 -0.000000 -0.000000
Spine -46.011314 1.867869 -3.308446
RightShoulder -33.401737 -5.869166 -46.324683
RightArm -24.969990 -3.389835 58.941266
RightForeArm 5.564167 -0.000000 -9.009795
RightHand 9.985694 0.000000 -1.243086
RightHandThumb1 -24.326973 -0.000000 -32.862282
LeftShoulder -23.131510 16.583872 38.119273
LeftArm -3.002284 -19.522025 -65.866296
LeftForeArm 23.251950 -0.000000 -1.664512
LeftHand -30.443074 -0.000000 4.613596
LeftHandThumb1 -26.253704 0.000000 33.147579
Head 1.063101 -5.027131 8.398386
1973
root 2.411699 32.734121 -5.969062 45.716704 4.944875 1.618419
RightUpLeg -38.158765 -18.485971 9.808509
RightLeg -3.542764 -0.000000 0.000000
RightFoot -9.493578 -1.113934 23.013717
RightToeBase 21.209974 -0.000000 -0.000000
LeftUpLeg -40.074997 10.170700 -2.902891
LeftLeg 0.048017 -0.000000 -0.000000
LeftFoot -3.164871 -8.450961 -15.907896
LeftToeBase 3.258927 -0.000000 -0.000000
Spine -46.011866 1.871450 -3.314613
RightShoulder -33.399194 -5.906519 -46.231685
RightArm -25.024426 -3.832136 59.236507
RightForeArm 5.775792 -0.000000 -8.904369
RightHand 10.045097 -0.000000 -1.466439
RightHandThumb1 -24.326973 -0.000000 -32.862282
LeftShoulder -23.119097 16.601414 38.101747
LeftArm -2.967083 -19.394598 -65.914238
LeftForeArm 23.400994 -0.000000 -1.688321
LeftHand -30.468561 -0.000000 4.838115
LeftHandThumb1 -26.253704 0.000000 33.147579
Head 1.023527 -5.080435 8.397089
1974
root 2.409688 32.734274 -5.976322 45.745270 4.928179 1.619340
RightUpLeg -38.202631 -18.477612 9.820001
RightLeg -3.547163 -0.000000 0.000000
RightFoot -9.482594 -1.082790 23.052214
RightToeBase 21.202482 -0.000000 -0.000000
LeftUpLeg -40.114120 10.158585 -2.899797
LeftLeg 0.053656 -0.000000 -0.000000
LeftFoot -3.176042 -8.432385 -15.908901
LeftToeBase 3.293213 -0.000000 -0.000000
Spine -46.006455 1.882143 -3.320697
RightShoulder -33.419883 -5.959563 -46.128967
RightArm -25.024025 -3.916062 59.323360
RightForeArm 5.619075 -0.000000 -8.802270
RightHand 10.286202 -0.000000 -1.814375
RightHandThumb1 -24.326973 -0.000000 -32.862282
LeftShoulder -23.100443 16.632188 38.090171
LeftArm -2.918414 -19.297001 -65.990033
LeftForeArm 23.544487 -0.000000 -1.702167
LeftHand -30.506868 -0.000000 5.238338
LeftHandThumb1 -26.253704 0.000000 33.147579
Head 0.980740 -5.112907 8.403834
